<svg  xmlns="http://www.w3.org/2000/svg" width="64" height="64" viewBox="0 0 64 64" fill="none">
  <rect width="64" height="64" rx="16" fill="#0070f3"/>
  <path d="M32 16C23.164 16 16 23.164 16 32C16 40.836 23.164 48 32 48C40.836 48 48 40.836 48 32C48 23.164 40.836 16 32 16ZM38 36.5C38 37.328 37.328 38 36.5 38H27.5C26.672 38 26 37.328 26 36.5V35.5C26 34.672 26.672 34 27.5 34H36.5C37.328 34 38 34.672 38 35.5V36.5ZM38 28.5C38 29.328 37.328 30 36.5 30H27.5C26.672 30 26 29.328 26 28.5V27.5C26 26.672 26.672 26 27.5 26H36.5C37.328 26 38 26.672 38 27.5V28.5Z" fill="white"/>
</svg>
 